<svg width="155" height="28" viewBox="0 0 155 28" fill="none" xmlns="http://www.w3.org/2000/svg">
<path d="M11.195 8.96171L7.06466 15.4415L10.2094 14.7512C10.2715 14.8569 10.3335 14.9625 10.3956 15.0682L0.578821 27.4209H0.222656L4.25986 19.3978L1.29317 20.0485C1.19806 19.9046 1.18997 19.8942 1.09485 19.7503L5.09766 13.3852L2.0905 14.0442C1.99538 13.8878 1.99741 13.8878 1.9023 13.7293L11.713 1.38281H12.0732L8.09066 9.30165L10.9966 8.66347C11.0938 8.80738 11.0998 8.8178 11.195 8.96171Z" fill="#202020"/>
<path d="M24.2773 22.8069L27.6474 6.4375H30.5452L27.1751 22.8069H24.2773Z" fill="#202020"/>
<path d="M30.5938 18.0957C30.5938 14.3573 33.6847 11.1719 37.4411 11.1719C41.0473 11.1719 43.1938 14.313 42.0347 18.1621H33.4486C33.5559 19.622 34.5433 20.4626 35.9171 20.4626C37.205 20.4626 38.2998 19.8654 39.051 18.8699L41.3478 19.976C40.2316 21.6793 38.128 23.0287 35.7669 23.0287C32.7403 23.0287 30.5938 21.1041 30.5938 18.0957ZM33.8994 15.8836H39.4803C39.3945 14.7333 38.4929 13.7379 37.1621 13.7379C35.8527 13.7379 34.5648 14.5564 33.8994 15.8836Z" fill="#202020"/>
<path d="M43.957 18.0957C43.957 14.3573 47.048 11.1719 50.8044 11.1719C54.4106 11.1719 56.5571 14.313 55.398 18.1621H46.8119C46.9192 19.622 47.9066 20.4626 49.2804 20.4626C50.5683 20.4626 51.663 19.8654 52.4143 18.8699L54.7111 19.976C53.5949 21.6793 51.4913 23.0287 49.1301 23.0287C46.1035 23.0287 43.957 21.1041 43.957 18.0957ZM47.2627 15.8836H52.8436C52.7578 14.7333 51.8562 13.7379 50.5254 13.7379C49.216 13.7379 47.9281 14.5564 47.2627 15.8836Z" fill="#202020"/>
<path d="M60.2977 20.0197L59.7181 22.8069H56.8203L60.1903 6.4375H63.0881L61.1777 15.6177L65.6854 11.3926H69.678L64.3117 16.3255L68.0466 22.8069H64.698L62.1222 18.3385L60.2977 20.0197Z" fill="#202020"/>
<path d="M16.3981 22.8069L18.2011 14.025H15.9688L16.5268 11.3926H18.7592L18.8665 10.8617C19.489 7.67627 20.9701 6.4375 24.2328 6.4375H25.5422L24.9841 9.06988H23.6962C22.4942 9.06988 22.0434 9.46806 21.7858 10.6847L21.657 11.3926H24.5119L23.9753 14.025H21.0989L19.2959 22.8069H16.3981Z" fill="#202020"/>
<path d="M69.8359 22.807L72.1327 11.6802H73.3133L72.7552 14.4011C73.7426 12.4987 75.4169 11.459 77.2629 11.459C79.9031 11.459 81.4486 13.6268 80.869 16.4804L79.5811 22.807H78.4005L79.6885 16.5025C80.1607 14.1356 78.9157 12.6093 76.9194 12.6093C74.73 12.6093 72.7767 14.2462 72.3259 16.4141L71.0165 22.807H69.8359Z" fill="#202020"/>
<path d="M146.157 19.5773L145.47 22.8069H144.289L147.659 6.4375H148.84L146.5 17.8076L153.326 11.6801H155L149.849 16.2813L153.734 22.8069H152.317L148.947 17.0776L146.157 19.5773Z" fill="#202020"/>
<path d="M136.293 22.8068L138.59 11.68H139.77L139.191 14.4672C140.543 12.0118 142.303 11.2597 144.321 11.5251L144.063 12.7196C141.702 12.2772 139.298 13.9142 138.783 16.4138L137.474 22.8068H136.293Z" fill="#202020"/>
<path d="M123.199 18.3386C123.199 14.6886 126.29 11.459 129.875 11.459C132.644 11.459 134.619 13.3835 134.619 16.1707C134.619 19.7986 131.528 23.0282 127.943 23.0282C125.174 23.0282 123.199 21.1037 123.199 18.3386ZM124.38 18.2943C124.38 20.3958 125.818 21.8779 127.964 21.8779C130.884 21.8779 133.438 19.1792 133.438 16.1929C133.438 14.1135 132 12.6093 129.853 12.6093C126.934 12.6093 124.38 15.308 124.38 18.2943Z" fill="#202020"/>
<path d="M107.112 22.8065L105.738 11.6797H106.919L108.121 22.4526L113.337 11.6797H115.462L116.342 22.4526L121.859 11.6797H123.104L117.265 22.8065H115.312L114.346 12.1221L109.065 22.8065H107.112Z" fill="#202020"/>
<path d="M96.8008 12.8087L97.0369 11.6806H99.5483L100.428 7.47762L101.695 7.10156L100.729 11.6806H104.163L103.949 12.8087H100.514L99.2049 19.1574C98.8185 20.9714 99.3337 21.6792 101.094 21.6792H102.124L101.888 22.8074H100.986C98.5395 22.8074 97.5521 21.5023 98.0458 19.0026L99.3337 12.8087H96.8008Z" fill="#202020"/>
<path d="M83.4453 18.3386C83.4453 14.6886 86.5363 11.459 90.121 11.459C93.1046 11.459 95.2512 14.0471 94.4999 17.5865H84.6474C84.6259 17.8298 84.6044 18.051 84.6044 18.2943C84.6044 20.4179 86.0641 21.9222 88.2106 21.9222C90.0781 21.9222 91.7738 20.8604 92.8041 19.2677L93.8559 19.688C92.6324 21.7009 90.5074 23.0282 88.1891 23.0282C85.4201 23.0282 83.4453 21.1037 83.4453 18.3386ZM84.9049 16.5247H93.4481C93.6413 14.3568 92.2031 12.5871 90.0781 12.5871C87.7598 12.5871 85.6562 14.2905 84.9049 16.5247Z" fill="#202020"/>
</svg>
