<svg fill="none" height="307" viewBox="0 0 1521 307" width="1521" xmlns="http://www.w3.org/2000/svg" xmlns:xlink="http://www.w3.org/1999/xlink"><filter id="a" color-interpolation-filters="sRGB" filterUnits="userSpaceOnUse" height="475.453" width="358.263" x="-84.6221" y="-84.7664"><feFlood flood-opacity="0" result="BackgroundImageFix"/><feGaussianBlur in="BackgroundImageFix" stdDeviation="42.3047"/><feComposite in2="SourceAlpha" operator="in" result="effect1_backgroundBlur_405_254"/><feColorMatrix in="SourceAlpha" result="hardAlpha" type="matrix" values="0 0 0 0 0 0 0 0 0 0 0 0 0 0 0 0 0 0 127 0"/><feOffset dy="8.46094"/><feGaussianBlur stdDeviation="21.1523"/><feComposite in2="hardAlpha" operator="out"/><feColorMatrix type="matrix" values="0 0 0 0 0 0 0 0 0 0 0 0 0 0 0 0 0 0 0.2 0"/><feBlend in2="effect1_backgroundBlur_405_254" mode="normal" result="effect2_dropShadow_405_254"/><feBlend in="SourceGraphic" in2="effect2_dropShadow_405_254" mode="normal" result="shape"/><feColorMatrix in="SourceAlpha" result="hardAlpha" type="matrix" values="0 0 0 0 0 0 0 0 0 0 0 0 0 0 0 0 0 0 127 0"/><feOffset dy="8.46094"/><feGaussianBlur stdDeviation="12.6914"/><feComposite in2="hardAlpha" k2="-1" k3="1" operator="arithmetic"/><feColorMatrix type="matrix" values="0 0 0 0 1 0 0 0 0 1 0 0 0 0 1 0 0 0 0.4 0"/><feBlend in2="shape" mode="normal" result="effect3_innerShadow_405_254"/><feColorMatrix in="SourceAlpha" result="hardAlpha" type="matrix" values="0 0 0 0 0 0 0 0 0 0 0 0 0 0 0 0 0 0 127 0"/><feOffset dy="-84.6094"/><feGaussianBlur stdDeviation="42.3047"/><feComposite in2="hardAlpha" k2="-1" k3="1" operator="arithmetic"/><feColorMatrix type="matrix" values="0 0 0 0 0 0 0 0 0 0 0 0 0 0 0 0 0 0 0.2 0"/><feBlend in2="effect3_innerShadow_405_254" mode="normal" result="effect4_innerShadow_405_254"/><feColorMatrix in="SourceAlpha" result="hardAlpha" type="matrix" values="0 0 0 0 0 0 0 0 0 0 0 0 0 0 0 0 0 0 127 0"/><feOffset dy="-8.46094"/><feGaussianBlur stdDeviation="4.23047"/><feComposite in2="hardAlpha" k2="-1" k3="1" operator="arithmetic"/><feColorMatrix type="matrix" values="0 0 0 0 1 0 0 0 0 1 0 0 0 0 1 0 0 0 0.25 0"/><feBlend in2="effect4_innerShadow_405_254" mode="normal" result="effect5_innerShadow_405_254"/><feColorMatrix in="SourceAlpha" result="hardAlpha" type="matrix" values="0 0 0 0 0 0 0 0 0 0 0 0 0 0 0 0 0 0 127 0"/><feOffset dy="42.3047"/><feGaussianBlur stdDeviation="42.3047"/><feComposite in2="hardAlpha" k2="-1" k3="1" operator="arithmetic"/><feColorMatrix type="matrix" values="0 0 0 0 1 0 0 0 0 1 0 0 0 0 1 0 0 0 0.25 0"/><feBlend in2="effect5_innerShadow_405_254" mode="normal" result="effect6_innerShadow_405_254"/><feColorMatrix in="SourceAlpha" result="hardAlpha" type="matrix" values="0 0 0 0 0 0 0 0 0 0 0 0 0 0 0 0 0 0 127 0"/><feOffset dy="2.11523"/><feGaussianBlur stdDeviation="2.11523"/><feComposite in2="hardAlpha" k2="-1" k3="1" operator="arithmetic"/><feColorMatrix type="matrix" values="0 0 0 0 1 0 0 0 0 1 0 0 0 0 1 0 0 0 0.8 0"/><feBlend in2="effect6_innerShadow_405_254" mode="normal" result="effect7_innerShadow_405_254"/></filter><mask id="b" height="307" maskUnits="userSpaceOnUse" width="190" x="0" y="0"><path clip-rule="evenodd" d="m185.723.562608c1.699-1.623088 4.283.590092 2.954 2.530382l-59.435 86.76921c-.936 1.3654.135 3.2073 1.779 3.0629l34.939-3.0681c1.74-.1528 2.789 1.8884 1.656 3.223l-59.963 70.692c-1.132 1.335-.083 3.375 1.656 3.223l37.623-3.304c1.841-.161 2.855 2.095 1.516 3.372l-145.12677 138.608c-1.69945 1.624-4.28354-.59-2.954506-2.53l60.216776-87.911c.9353-1.365-.1346-3.208-1.779-3.063l-35.6865 3.134c-1.7337.152-2.7845-1.876-1.6645-3.213l58.1998-69.483c1.12-1.337.0692-3.367-1.6645-3.214l-35.8768 3.151c-1.84.161-2.854-2.095-1.5159-3.372z" fill="#000" fill-rule="evenodd"/></mask><g fill="#ecedee"><path d="m243.428 234.596c-3.648 0-6.536-.988-8.664-2.964-1.976-2.128-2.964-5.016-2.964-8.664v-83.448h-12.768c-2.888 0-5.168-.76-6.84-2.28-1.672-1.672-2.508-3.876-2.508-6.612 0-2.888.836-5.092 2.508-6.612s3.952-2.28 6.84-2.28h19.38l-6.612 6.156v-8.208c0-15.048 3.724-26.3719 11.172-33.9719 7.448-7.752 18.316-12.312 32.604-13.68l7.068-.456c2.584-.304 4.636.076 6.156 1.14s2.508 2.432 2.964 4.104.456 3.42 0 5.244c-.304 1.672-1.064 3.192-2.28 4.56s-2.736 2.128-4.56 2.28l-4.332.228c-8.968.76-15.504 3.344-19.608 7.752-4.104 4.2559-6.156 10.7919-6.156 19.6079v8.892l-3.192-3.648h25.308c3.192 0 5.548.76 7.068 2.28 1.672 1.52 2.508 3.724 2.508 6.612 0 2.736-.836 4.94-2.508 6.612-1.52 1.52-3.876 2.28-7.068 2.28h-22.116v83.448c0 7.752-3.8 11.628-11.4 11.628zm96.672.456c-11.856 0-20.824-3.42-26.904-10.26-5.928-6.992-8.892-17.024-8.892-30.096v-112.4039c0-3.8.988-6.688 2.964-8.664s4.788-2.964 8.436-2.964 6.46.988 8.436 2.964c2.128 1.976 3.192 4.864 3.192 8.664v111.0359c0 7.6 1.52 13.3 4.56 17.1 3.192 3.648 7.752 5.472 13.68 5.472h3.648c1.064-.152 2.128-.304 3.192-.456 1.824-.152 3.116.38 3.876 1.596.76 1.064 1.14 3.344 1.14 6.84 0 3.192-.684 5.7-2.052 7.524-1.368 1.672-3.572 2.736-6.612 3.192-1.368.152-2.812.228-4.332.228-1.52.152-2.964.228-4.332.228z"/><path d="m420.906 235.052c-12.16 0-22.648-2.28-31.464-6.84-8.664-4.712-15.428-11.324-20.292-19.836-4.712-8.664-7.068-18.924-7.068-30.78 0-11.552 2.356-21.66 7.068-30.324 4.713-8.664 11.172-15.428 19.38-20.292s17.556-7.296 28.044-7.296c7.752 0 14.668 1.292 20.748 3.876 6.08 2.432 11.248 6.08 15.504 10.944 4.408 4.712 7.676 10.488 9.804 17.328 2.28 6.84 3.421 14.516 3.421 23.028 0 2.584-.761 4.56-2.281 5.928-1.52 1.216-3.8 1.824-6.84 1.824h-76.608v-14.136h70.224l-3.875 3.192c0-7.6-1.14-14.06-3.42-19.38-2.129-5.32-5.396-9.348-9.804-12.084-4.256-2.888-9.577-4.332-15.961-4.332-7.144 0-13.224 1.672-18.24 5.016-4.864 3.344-8.588 7.98-11.172 13.908s-3.876 12.844-3.876 20.748v1.368c0 13.376 3.116 23.484 9.348 30.324 6.384 6.688 15.58 10.032 27.588 10.032 4.56 0 9.348-.608 14.364-1.824 5.168-1.216 10.033-3.268 14.592-6.156 2.584-1.52 4.864-2.204 6.84-2.052 2.129.152 3.8.836 5.017 2.052 1.367 1.216 2.203 2.736 2.507 4.56s0 3.724-.912 5.7c-.912 1.824-2.507 3.496-4.787 5.016-5.168 3.496-11.173 6.156-18.013 7.98-6.84 1.672-13.452 2.508-19.836 2.508z"/><path d="m538.807 235.052c-12.16 0-22.648-2.28-31.464-6.84-8.664-4.712-15.428-11.324-20.292-19.836-4.712-8.664-7.068-18.924-7.068-30.78 0-11.552 2.356-21.66 7.068-30.324s11.172-15.428 19.38-20.292 17.556-7.296 28.044-7.296c7.752 0 14.668 1.292 20.748 3.876 6.08 2.432 11.248 6.08 15.504 10.944 4.408 4.712 7.676 10.488 9.804 17.328 2.28 6.84 3.42 14.516 3.42 23.028 0 2.584-.76 4.56-2.28 5.928-1.52 1.216-3.8 1.824-6.84 1.824h-76.608v-14.136h70.224l-3.876 3.192c0-7.6-1.14-14.06-3.42-19.38-2.128-5.32-5.396-9.348-9.804-12.084-4.256-2.888-9.576-4.332-15.96-4.332-7.144 0-13.224 1.672-18.24 5.016-4.864 3.344-8.588 7.98-11.172 13.908s-3.876 12.844-3.876 20.748v1.368c0 13.376 3.116 23.484 9.348 30.324 6.384 6.688 15.58 10.032 27.588 10.032 4.56 0 9.348-.608 14.364-1.824 5.168-1.216 10.032-3.268 14.592-6.156 2.584-1.52 4.864-2.204 6.84-2.052 2.128.152 3.8.836 5.016 2.052 1.368 1.216 2.204 2.736 2.508 4.56s0 3.724-.912 5.7c-.912 1.824-2.508 3.496-4.788 5.016-5.168 3.496-11.172 6.156-18.012 7.98-6.84 1.672-13.452 2.508-19.836 2.508z"/><path d="m615.896 234.596c-3.648 0-6.46-.988-8.436-2.964-1.976-2.128-2.964-5.016-2.964-8.664v-140.6759c0-3.8.988-6.688 2.964-8.664s4.788-2.964 8.436-2.964 6.46.988 8.436 2.964c2.128 1.976 3.192 4.864 3.192 8.664v88.0079h.456l42.636-42.408c2.432-2.432 4.636-4.332 6.612-5.7s4.56-2.052 7.752-2.052 5.624.836 7.296 2.508 2.508 3.724 2.508 6.156c0 2.28-1.14 4.636-3.42 7.068l-45.144 44.688v-10.716l49.248 49.02c2.432 2.432 3.572 4.864 3.42 7.296s-1.14 4.484-2.964 6.156c-1.824 1.52-4.104 2.28-6.84 2.28-3.496 0-6.308-.684-8.436-2.052-1.976-1.368-4.332-3.42-7.068-6.156l-45.6-44.232h-.456v40.812c0 7.752-3.876 11.628-11.628 11.628z"/><path d="m765.168 234.368c-1.52 0-2.736-.456-3.648-1.368-.76-.912-1.14-2.128-1.14-3.648v-103.056c0-1.672.38-2.888 1.14-3.648.912-.912 2.128-1.368 3.648-1.368s2.66.456 3.42 1.368c.76.76 1.14 1.976 1.14 3.648v23.256h-2.508c3.04-9.576 8.284-16.72 15.732-21.432 7.448-4.864 16.036-7.296 25.764-7.296 8.816 0 16.112 1.52 21.888 4.56 5.928 3.04 10.336 7.676 13.224 13.908s4.332 14.06 4.332 23.484v66.576c0 1.52-.456 2.736-1.368 3.648-.76.912-1.9 1.368-3.42 1.368s-2.736-.456-3.648-1.368c-.76-.912-1.14-2.128-1.14-3.648v-65.664c0-11.704-2.356-20.292-7.068-25.764s-12.312-8.208-22.8-8.208c-11.704 0-21.128 3.648-28.272 10.944-6.992 7.144-10.488 16.796-10.488 28.956v59.736c0 3.344-1.596 5.016-4.788 5.016z"/><path d="m927.671 234.824c-10.944 0-20.368-2.28-28.272-6.84s-14.06-11.02-18.468-19.38c-4.256-8.512-6.384-18.62-6.384-30.324 0-11.552 2.128-21.584 6.384-30.096 4.408-8.664 10.412-15.352 18.012-20.064 7.752-4.864 16.644-7.296 26.676-7.296 7.144 0 13.452 1.216 18.924 3.648 5.624 2.432 10.336 5.928 14.136 10.488 3.952 4.56 6.916 10.108 8.892 16.644 2.128 6.536 3.192 13.908 3.192 22.116 0 1.976-.456 3.496-1.368 4.56-.76.912-1.976 1.368-3.648 1.368h-85.044v-8.436h85.044l-3.876 2.736c0-9.272-1.368-17.176-4.104-23.712-2.736-6.688-6.84-11.78-12.312-15.276-5.32-3.648-12.008-5.472-20.064-5.472-8.816 0-16.34 2.128-22.572 6.384-6.08 4.104-10.716 9.728-13.908 16.872-3.04 7.144-4.56 15.276-4.56 24.396v1.14c0 15.2 3.724 26.98 11.172 35.34 7.6 8.208 18.164 12.312 31.692 12.312 6.08 0 11.78-.76 17.1-2.28 5.32-1.672 10.564-4.56 15.732-8.664 1.064-.912 2.128-1.368 3.192-1.368 1.216-.152 2.204.076 2.964.684.912.456 1.52 1.14 1.824 2.052.456.76.532 1.672.228 2.736s-1.064 2.052-2.28 2.964c-4.712 3.952-10.488 7.068-17.328 9.348s-13.832 3.42-20.976 3.42z"/><path d="m1035.61 234.824c-7.6 0-13.98-1.444-19.15-4.332-5.17-3.04-9.05-7.296-11.63-12.768-2.58-5.624-3.88-12.388-3.88-20.292v-66.576h-18.464c-1.52 0-2.736-.38-3.648-1.14s-1.368-1.748-1.368-2.964.456-2.204 1.368-2.964 2.128-1.14 3.648-1.14h18.464v-30.7799c0-1.672.38-2.888 1.14-3.648.92-.912 2.13-1.368 3.65-1.368s2.66.456 3.42 1.368c.91.76 1.37 1.976 1.37 3.648v30.7799h32.6c1.68 0 2.89.38 3.65 1.14.91.76 1.37 1.748 1.37 2.964s-.46 2.204-1.37 2.964c-.76.76-1.97 1.14-3.65 1.14h-32.6v64.524c0 9.88 1.98 17.48 5.93 22.8 3.95 5.168 10.56 7.752 19.83 7.752 3.2 0 5.78-.304 7.76-.912 2.12-.76 3.87-1.14 5.24-1.14.91 0 1.67.38 2.28 1.14.76.76 1.14 1.824 1.14 3.192 0 .76-.23 1.596-.68 2.508-.31.76-.99 1.292-2.06 1.596-1.52.608-3.72 1.14-6.61 1.596-2.73.608-5.32.912-7.75.912z"/><path d="m1100.63 234.368c-1.52 0-2.96-.456-4.33-1.368-1.21-.912-2.2-2.356-2.96-4.332l-34.89-99.408c-.6-1.824-.76-3.268-.45-4.332.3-1.216.83-2.128 1.59-2.736.92-.608 1.9-.912 2.97-.912 1.37 0 2.43.304 3.19.912s1.37 1.672 1.82 3.192l35.8 104.652h-5.93l36.94-103.056c.76-1.976 1.75-3.42 2.96-4.332 1.37-.912 2.89-1.368 4.56-1.368s3.19.456 4.56 1.368 2.36 2.356 2.97 4.332l36.02 103.056h-5.93l36.71-104.652c.61-1.672 1.22-2.736 1.82-3.192.76-.608 1.9-.912 3.42-.912s2.59.38 3.2 1.14c.6.76.91 1.748.91 2.964.15 1.216 0 2.508-.46 3.876l-35.34 99.408c-.61 1.976-1.59 3.42-2.96 4.332-1.22.912-2.59 1.368-4.11 1.368s-2.96-.456-4.33-1.368c-1.21-.912-2.2-2.356-2.96-4.332l-36.94-104.424h7.07l-37.62 104.424c-.61 1.976-1.6 3.42-2.96 4.332-1.22.912-2.66 1.368-4.34 1.368z"/><path d="m1291.97 234.824c-10.03 0-18.77-2.356-26.22-7.068-7.3-4.712-13-11.324-17.1-19.836-3.95-8.512-5.93-18.544-5.93-30.096 0-8.664 1.14-16.492 3.42-23.484s5.55-12.996 9.81-18.012c4.4-5.016 9.65-8.816 15.73-11.4 6.08-2.736 12.84-4.104 20.29-4.104 10.03 0 18.7 2.356 25.99 7.068 7.45 4.712 13.15 11.324 17.1 19.836 4.11 8.512 6.16 18.544 6.16 30.096 0 8.664-1.14 16.492-3.42 23.484s-5.63 12.996-10.03 18.012c-4.26 5.016-9.43 8.892-15.51 11.628-5.93 2.584-12.69 3.876-20.29 3.876zm0-8.892c8.06 0 15.05-1.9 20.98-5.7 5.92-3.8 10.48-9.272 13.68-16.416 3.19-7.296 4.78-15.96 4.78-25.992 0-15.2-3.57-26.98-10.71-35.34-6.99-8.512-16.57-12.768-28.73-12.768-8.06 0-15.05 1.9-20.98 5.7-5.92 3.8-10.48 9.272-13.68 16.416-3.19 7.144-4.78 15.808-4.78 25.992 0 15.2 3.57 27.056 10.71 35.568 7.15 8.36 16.72 12.54 28.73 12.54z"/><path d="m1372.93 234.368c-1.52 0-2.74-.456-3.65-1.368-.76-.912-1.14-2.128-1.14-3.648v-103.056c0-1.672.38-2.888 1.14-3.648.91-.912 2.13-1.368 3.65-1.368s2.66.456 3.42 1.368c.76.76 1.14 1.976 1.14 3.648v22.116h-2.28c2.89-8.968 7.98-15.884 15.28-20.748 7.44-4.864 16.03-7.296 25.76-7.296 1.37 0 2.51.304 3.42.912 1.06.456 1.6 1.444 1.6 2.964s-.38 2.736-1.14 3.648c-.76.76-2.06 1.216-3.88 1.368l-2.74.228c-11.24 1.064-20.06 4.864-26.44 11.4-6.24 6.536-9.35 15.2-9.35 25.992v62.472c0 1.52-.38 2.736-1.14 3.648s-1.98 1.368-3.65 1.368z"/><path d="m1442.96 234.368c-1.52 0-2.74-.456-3.65-1.368-.76-.912-1.14-2.128-1.14-3.648v-153.4439c0-1.672.38-2.888 1.14-3.648.91-.912 2.13-1.368 3.65-1.368s2.66.456 3.42 1.368c.91.76 1.37 1.976 1.37 3.648v97.8119h.45l54.95-49.02c1.22-1.064 2.36-1.9 3.42-2.508 1.07-.608 2.36-.912 3.88-.912 1.21 0 2.2.38 2.96 1.14.76.608 1.07 1.444.91 2.508 0 1.064-.6 2.204-1.82 3.42l-58.6 51.984v-8.208l63.62 54.264c1.52 1.216 2.35 2.432 2.5 3.648.16 1.216-.15 2.204-.91 2.964-.61.912-1.52 1.368-2.73 1.368-1.37 0-2.59-.304-3.65-.912-.91-.608-2.21-1.596-3.88-2.964l-60.65-51.528h-.45v50.388c0 3.344-1.6 5.016-4.79 5.016z"/></g><g mask="url(#b)"><g filter="url(#a)"><path clip-rule="evenodd" d="m185.71.405626c1.7-1.623086 4.283.590096 2.955 2.530384l-59.435 86.76919c-.937 1.3654.134 3.2073 1.778 3.0629l34.939-3.0681c1.74-.1528 2.789 1.8885 1.657 3.223l-59.964 70.692c-1.132 1.335-.083 3.375 1.657 3.223l37.622-3.304c1.841-.161 2.855 2.095 1.517 3.373l-145.12747 138.607c-1.69944 1.624-4.283536-.59-2.954502-2.53l60.216772-87.911c.9353-1.365-.1346-3.208-1.779-3.063l-35.6865 3.134c-1.7337.152-2.7845-1.876-1.6645-3.213l58.1998-69.483c1.12-1.337.0692-3.367-1.6645-3.214l-35.8768 3.151c-1.84.161-2.854-2.095-1.5159-3.372z" fill="#000" fill-rule="evenodd"/></g><path d="m-6-7h205.297v317.354h-205.297z" fill="#fff"/></g></svg>