<svg width="1521" height="271" viewBox="0 0 1521 271" fill="none" xmlns="http://www.w3.org/2000/svg">
<path d="M109.864 86.4414L69.334 148.945L100.193 142.286C100.802 143.305 101.411 144.325 102.02 145.344L5.68912 264.497H2.19411L41.8108 187.107L12.699 193.383C11.7657 191.995 11.6862 191.894 10.7529 190.506L50.032 129.109L20.523 135.466C19.5897 133.958 19.6096 133.958 18.6762 132.429L114.948 13.3364H118.483L79.402 89.7205L107.918 83.5647C108.871 84.9528 108.931 85.0533 109.864 86.4414Z" fill="white"/>
<path d="M238.238 219.995L271.308 62.0977H299.744L266.674 219.995H238.238Z" fill="white"/>
<path d="M300.2 174.547C300.2 138.486 330.532 107.76 367.393 107.76C402.78 107.76 423.843 138.059 412.469 175.187H328.215C329.268 189.269 338.957 197.378 352.438 197.378C365.076 197.378 375.818 191.617 383.19 182.015L405.728 192.683C394.775 209.113 374.133 222.129 350.963 222.129C321.264 222.129 300.2 203.566 300.2 174.547ZM332.638 153.209H387.403C386.561 142.114 377.714 132.512 364.655 132.512C351.806 132.512 339.168 140.407 332.638 153.209Z" fill="white"/>
<path d="M431.329 174.547C431.329 138.486 461.66 107.76 498.522 107.76C533.908 107.76 554.972 138.059 543.598 175.187H459.343C460.396 189.269 470.086 197.378 483.566 197.378C496.205 197.378 506.947 191.617 514.319 182.015L536.857 192.683C525.904 209.113 505.262 222.129 482.092 222.129C452.392 222.129 431.329 203.566 431.329 174.547ZM463.767 153.209H518.532C517.689 142.114 508.843 132.512 495.783 132.512C482.934 132.512 470.296 140.407 463.767 153.209Z" fill="white"/>
<path d="M591.697 193.11L586.01 219.995H557.574L590.644 62.0977H619.079L600.333 150.648L644.566 109.894H683.744L631.086 157.476L667.736 219.995H634.877L609.601 176.893L591.697 193.11Z" fill="white"/>
<path d="M160.907 219.995L178.6 135.285H156.694L162.171 109.894H184.077L185.13 104.773C191.239 74.0466 205.772 62.0977 237.789 62.0977H250.638L245.161 87.4893H232.523C220.728 87.4893 216.304 91.33 213.777 103.066L212.513 109.894H240.527L235.261 135.285H207.036L189.343 219.995H160.907Z" fill="white"/>
<path d="M685.275 219.995L707.813 112.667H719.398L713.921 138.913C723.611 120.562 740.04 110.534 758.155 110.534C784.063 110.534 799.229 131.444 793.542 158.97L780.904 219.995H769.319L781.957 159.183C786.591 136.352 774.374 121.629 754.785 121.629C733.3 121.629 714.132 137.419 709.709 158.33L696.86 219.995H685.275Z" fill="white"/>
<path d="M1434.22 188.842L1427.48 219.995H1415.89L1448.96 62.0977H1460.55L1437.59 171.772L1504.57 112.668H1521L1470.45 157.049L1508.57 219.995H1494.67L1461.6 164.731L1434.22 188.842Z" fill="white"/>
<path d="M1337.42 219.995L1359.96 112.667H1371.55L1365.86 139.553C1379.13 115.868 1396.4 108.613 1416.2 111.174L1413.67 122.696C1390.5 118.428 1366.91 134.218 1361.86 158.33L1349.01 219.995H1337.42Z" fill="white"/>
<path d="M1208.91 176.893C1208.91 141.686 1239.24 110.534 1274.42 110.534C1301.59 110.534 1320.97 129.097 1320.97 155.983C1320.97 190.976 1290.64 222.129 1255.46 222.129C1228.29 222.129 1208.91 203.565 1208.91 176.893ZM1220.5 176.467C1220.5 196.737 1234.61 211.033 1255.67 211.033C1284.32 211.033 1309.38 185.002 1309.38 156.196C1309.38 136.139 1295.27 121.629 1274.21 121.629C1245.56 121.629 1220.5 147.661 1220.5 176.467Z" fill="white"/>
<path d="M1051.08 219.995L1037.6 112.667H1049.18L1060.98 216.581L1112.16 112.667H1133.02L1141.65 216.581L1195.78 112.667H1208L1150.71 219.995H1131.54L1122.06 116.935L1070.25 219.995H1051.08Z" fill="white"/>
<path d="M949.866 123.549L952.183 112.667H976.828L985.464 72.1259L997.891 68.4985L988.413 112.667H1022.11L1020.01 123.549H986.306L973.458 184.788C969.666 202.285 974.721 209.113 991.994 209.113H1002.1L999.787 219.995H990.94C966.928 219.995 957.239 207.406 962.083 183.294L974.721 123.549H949.866Z" fill="white"/>
<path d="M818.815 176.893C818.815 141.686 849.146 110.534 884.323 110.534C913.601 110.534 934.664 135.499 927.292 169.639H830.61C830.4 171.986 830.189 174.119 830.189 176.467C830.189 196.951 844.512 211.46 865.576 211.46C883.901 211.46 900.541 201.218 910.652 185.855L920.973 189.909C908.967 209.326 888.114 222.129 865.365 222.129C838.193 222.129 818.815 203.565 818.815 176.893ZM833.138 159.397H916.971C918.867 138.486 904.754 121.416 883.901 121.416C861.153 121.416 840.51 137.846 833.138 159.397Z" fill="white"/>
</svg>
